<?xml version="1.0" encoding="UTF-8" standalone="no"?>
<!-- Created with Inkscape (http://www.inkscape.org/) -->

<svg
   width="210mm"
   height="297mm"
   viewBox="0 0 210 297"
   version="1.1"
   id="svg5"
   inkscape:version="1.1 (c68e22c387, 2021-05-23)"
   sodipodi:docname="Chapter1_Section3_img1.svg"
   xmlns:inkscape="http://www.inkscape.org/namespaces/inkscape"
   xmlns:sodipodi="http://sodipodi.sourceforge.net/DTD/sodipodi-0.dtd"
   xmlns="http://www.w3.org/2000/svg"
   xmlns:svg="http://www.w3.org/2000/svg">
  <sodipodi:namedview
     id="namedview7"
     pagecolor="#ffffff"
     bordercolor="#666666"
     borderopacity="1.0"
     inkscape:pageshadow="2"
     inkscape:pageopacity="0.0"
     inkscape:pagecheckerboard="0"
     inkscape:document-units="mm"
     showgrid="true"
     showborder="false"
     inkscape:zoom="2.261442"
     inkscape:cx="219.55018"
     inkscape:cy="259.3478"
     inkscape:window-width="1920"
     inkscape:window-height="1001"
     inkscape:window-x="-9"
     inkscape:window-y="-9"
     inkscape:window-maximized="1"
     inkscape:current-layer="layer1"
     showguides="false"
     inkscape:snap-grids="false"
     inkscape:snap-to-guides="false">
    <inkscape:grid
       type="xygrid"
       id="grid9"
       dotted="true" />
  </sodipodi:namedview>
  <defs
     id="defs2" />
  <g
     inkscape:label="图层 1"
     inkscape:groupmode="layer"
     id="layer1">
    <path
       style="fill:none;stroke:#000000;stroke-width:0.317034px;stroke-linecap:butt;stroke-linejoin:miter;stroke-opacity:1"
       d="M 0.07032295,0.07032295 V 118.95844 H 118.95844 V 0.07032295 H 0.07032295"
       id="path433" />
    <ellipse
       style="fill:none;stroke:#000000;stroke-width:0.5774"
       id="path1218"
       cx="11.603744"
       cy="64.628654"
       rx="15.347614"
       ry="37.895302"
       transform="matrix(0.96048138,-0.27834425,0.2572922,0.96633365,0,0)" />
    <ellipse
       style="fill:none;stroke:#000000;stroke-width:0.578311;stroke-miterlimit:4;stroke-dasharray:none"
       id="path1222"
       cx="100.89194"
       cy="32.084869"
       rx="15.398604"
       ry="36.559158"
       transform="matrix(0.9626694,0.27067993,-0.17629629,0.98433715,0,0)" />
    <ellipse
       style="fill:#666666;stroke:#000000;stroke-width:0.534194"
       id="path1446"
       cx="43.730328"
       cy="42.484341"
       rx="4.3548803"
       ry="13.472528"
       transform="matrix(0.96006387,0.27978093,-0.41465177,0.90998017,0,0)" />
    <path
       style="fill:none;stroke:#000000;stroke-width:0.526048px;stroke-linecap:butt;stroke-linejoin:miter;stroke-opacity:1"
       d="m 21.470183,83.292 c 0,0 6.769366,-18.361709 23.777623,-4.199086"
       id="path1667" />
    <path
       style="fill:#666666;stroke:#000000;stroke-width:0.148929"
       d="m 34.716387,95.653183 c -3.71615,-0.62207 -8.025567,-4.34354 -11.945365,-10.315624 l -1.128701,-1.719653 0.68056,-1.328604 c 1.061661,-2.0726 1.935076,-3.298293 3.391229,-4.759023 1.518261,-1.523038 2.831156,-2.371062 4.615757,-2.981411 1.034,-0.353634 1.422913,-0.407195 2.973911,-0.409574 1.824346,-0.0029 2.747444,0.163838 4.535214,0.818685 1.843861,0.675393 4.533813,2.289917 6.687677,4.01397 l 0.487699,0.390382 -0.244455,2.137446 c -0.795814,6.958383 -2.860949,11.540569 -6.040924,13.403797 -1.149658,0.673609 -2.717209,0.966451 -4.012602,0.749609 z"
       id="path2235" />
    <ellipse
       style="fill:none;stroke:#000000;stroke-width:0.530813"
       id="path2320"
       cx="27.605545"
       cy="102.62826"
       rx="6.6252818"
       ry="14.573356"
       transform="matrix(0.71591434,-0.69818812,0.70806442,0.70614784,0,0)" />
    <ellipse
       style="fill:none;stroke:#000000;stroke-width:0.512222"
       id="path2322"
       cx="115.95861"
       cy="2.6480892"
       rx="7.2668619"
       ry="13.496996"
       transform="matrix(0.81759238,0.57579745,-0.41927264,0.90786037,0,0)" />
    <ellipse
       style="fill:#666666;stroke:#000000;stroke-width:0.476301"
       id="path2426"
       cx="89.236412"
       cy="51.192204"
       rx="3.5666432"
       ry="5.9444051" />
    <text
       xml:space="preserve"
       style="font-size:2.37777px;line-height:1.25;font-family:sans-serif;stroke-width:0.475552"
       x="19.092421"
       y="33.358994"
       id="text9418"><tspan
         sodipodi:role="line"
         id="tspan9416"
         style="stroke-width:0.475552"
         x="19.092421"
         y="33.358994">$X$</tspan></text>
    <path
       style="fill:#999999;stroke:#000000;stroke-width:0.148929"
       d="m 18.47127,62.518949 c -1.92648,-1.926484 0.263486,-10.432185 4.413234,-17.140747 2.355344,-3.807695 5.00626,-6.423992 6.508996,-6.423992 3.700622,0 0.550155,12.202986 -5.103936,19.76954 -1.848726,2.474046 -3.901448,4.170443 -5.046433,4.170443 -0.225783,0 -0.558242,-0.16162 -0.771861,-0.375244 z"
       id="path17623" />
    <path
       style="fill:#999999;stroke:#000000;stroke-width:0.148929"
       d="M 34.483981,95.454724 C 31.086183,94.780382 26.953523,91.169499 23.07097,85.48269 l -1.27018,-1.860442 0.705303,-1.335295 c 1.843126,-3.489435 4.261864,-6.013465 6.880101,-7.179605 1.598064,-0.711759 2.155316,-0.804088 4.392874,-0.727842 2.353423,0.08019 3.295581,0.322031 5.472532,1.404724 1.34813,0.670483 4.183324,2.48635 5.108838,3.272078 l 0.499277,0.423865 -0.240161,1.969856 c -0.685056,5.61898 -2.079519,9.494553 -4.254,11.82296 -1.755709,1.879998 -3.72368,2.610005 -5.881573,2.181735 z"
       id="path17662" />
    <path
       style="fill:#999999;stroke:#000000;stroke-width:0.148929"
       d="m 88.544173,56.688457 c -0.923215,-0.354906 -1.874631,-1.757668 -2.300143,-3.39131 -0.289056,-1.109758 -0.288384,-2.988931 0.0014,-4.218757 0.556697,-2.361737 2.067754,-3.826641 3.530581,-3.422735 0.972274,0.26846 2.07128,1.813122 2.478956,3.484199 0.282436,1.15772 0.224593,3.407453 -0.11552,4.492715 -0.73479,2.344655 -2.201855,3.591587 -3.59538,3.055888 z"
       id="path17701" />
    <text
       xml:space="preserve"
       style="font-size:2.37777px;line-height:1.25;font-family:sans-serif;fill:#000000;stroke-width:0.475552"
       x="20.495083"
       y="53.898876"
       id="text13580"><tspan
         sodipodi:role="line"
         id="tspan13578"
         style="fill:#000000;stroke-width:0.475552"
         x="20.495083"
         y="53.898876">$A$</tspan></text>
    <text
       xml:space="preserve"
       style="font-size:2.37777px;line-height:1.25;font-family:sans-serif;stroke-width:0.475552"
       x="30.981232"
       y="83.291992"
       id="text19844"><tspan
         sodipodi:role="line"
         id="tspan19842"
         style="stroke-width:0.475552"
         x="30.981232"
         y="83.291992">$f^{-1}(B)$</tspan></text>
    <text
       xml:space="preserve"
       style="font-size:2.37777px;line-height:1.25;font-family:sans-serif;stroke-width:0.475552"
       x="85.930862"
       y="51.590828"
       id="text24138"><tspan
         sodipodi:role="line"
         id="tspan24136"
         style="stroke-width:0.475552"
         x="85.930862"
         y="51.590828">$f(A)$</tspan></text>
    <text
       xml:space="preserve"
       style="font-size:2.37777px;line-height:1.25;font-family:sans-serif;stroke-width:0.475552"
       x="93.593292"
       y="55.817184"
       id="text33052"><tspan
         sodipodi:role="line"
         id="tspan33050"
         style="stroke-width:0.475552"
         x="93.593292"
         y="55.817184">$f(X)$</tspan></text>
    <path
       style="fill:#999999;stroke:#000000;stroke-width:0.148929"
       d="M 97.549286,63.768624 C 96.158119,63.372222 94.118794,62.3698 92.431539,61.253007 l -1.391329,-0.920911 0.945241,-0.958948 c 2.470152,-2.50596 4.950826,-3.354712 6.824445,-2.334963 1.579644,0.859753 2.461714,2.680052 2.746664,5.668152 0.10183,1.067745 0.0996,1.077227 -0.2937,1.226741 -0.64005,0.243345 -2.584622,0.157229 -3.713574,-0.164454 z"
       id="path33881" />
    <text
       xml:space="preserve"
       style="font-size:2.37777px;line-height:1.25;font-family:sans-serif;stroke-width:0.475552"
       x="92.803055"
       y="71.403191"
       id="text35607"><tspan
         sodipodi:role="line"
         id="tspan35605"
         style="stroke-width:0.475552"
         x="92.803055"
         y="71.403191">$B$</tspan></text>
    <text
       xml:space="preserve"
       style="font-size:2.37777px;line-height:1.25;font-family:sans-serif;stroke-width:0.475552"
       x="95.180794"
       y="28.603472"
       id="text37129"><tspan
         sodipodi:role="line"
         id="tspan37127"
         style="stroke-width:0.475552"
         x="95.180794"
         y="28.603472">$Y$</tspan></text>
    <path
       style="fill:none;stroke:#000000;stroke-width:0.486349;stroke-linecap:butt;stroke-linejoin:miter;stroke-miterlimit:4;stroke-dasharray:0.486349, 0.486349;stroke-dashoffset:0;stroke-opacity:1"
       d="M 23.059928,22.853895 88.168099,42.216069"
       id="path40143"
       inkscape:transform-center-x="0.10248635"
       inkscape:transform-center-y="0.99416967" />
    <path
       style="fill:none;stroke:#000000;stroke-width:0.504854;stroke-linecap:butt;stroke-linejoin:miter;stroke-miterlimit:4;stroke-dasharray:0.504854, 0.504854;stroke-dashoffset:0;stroke-opacity:1"
       d="M 20.964848,63.103687 88.582282,57.090698"
       id="path40145" />
    <path
       style="fill:none;stroke:#000000;stroke-width:0.475552;stroke-linecap:butt;stroke-linejoin:miter;stroke-miterlimit:4;stroke-dasharray:0.475552, 0.475552;stroke-dashoffset:0;stroke-opacity:1"
       d="m 30.036258,38.55289 59.826727,6.729194"
       id="path40147" />
    <path
       style="fill:none;stroke:#000000;stroke-width:0.475552;stroke-linecap:butt;stroke-linejoin:miter;stroke-miterlimit:4;stroke-dasharray:0.475552, 0.475552;stroke-dashoffset:0;stroke-opacity:1"
       d="M 37.291168,95.751027 103.21623,63.47193"
       id="path40149" />
  </g>
</svg>
